Patient4_TMGait_0pt6_01_right_16_EMG.mot
version=1
nRows=29
nColumns=33
inDegrees=no
endheader
time	1LAddLong	2LGlutMax	3LGlutMed	4LIliopsoas	5LSemiMemb	6LBicFemLong	7LRecFem	8LVastMed	9LVastLat	10LGasMed	11LTibAnt	12lTibPost	13LPeroneusLong	14LSol	15LExtDigLong	16LFlexDigLong	17RAddLong	18RGlutMax	19RGlutMed	20RIliopsoas	21RSemiMemb	22RBicFemLong	23RRecFem	24RVastMed	25RVastLat	26RGasMed	27RTibAnt	28RTibPost	29RPeroneusLong	30RSol	31RExtDigLong	32RFlexDigLong
20.175	0.012512	-0.013733	0.16617	-0.010376	-0.005341	-0.015106	0.19165	0.009155	0.093231	0.00885	0.032654	0.006256	0.037842	-0.14526	0.091705	-0.036011	-0.027924	-0.079651	0.050659	0.063477	0.017548	0.03952	-0.028687	-0.024872	0.032959	-0.005493	0.11353	-0.010376	-0.12085	0.069733	0.000153	0.003357
20.176	0.006866	-0.012512	0.14114	0.008087	0.0177	-0.017548	0.1976	0.001831	0.079498	-0.03418	0.028076	0.009155	0.030823	-0.090027	0.061493	-0.035095	-0.011292	-0.022736	0.13611	0.19669	0.035095	0.018158	-0.023041	-0.058899	0.017853	-0.005341	0.22217	-0.006104	-0.25116	0.080566	0.003815	-0.011292
20.177	0.007019	-0.010529	0.049438	0.036469	0.021973	-0.034485	0.20462	0.007477	0.072784	-0.039368	-0.013275	0.010071	-0.003204	0.003204	0.017853	-0.039063	-0.020599	-0.069733	-0.03067	0.22201	0.048218	0.014191	0.033569	-0.041046	-0.016479	-0.006256	0.067444	-0.011444	-0.022125	0.057373	0.001984	-0.029297
20.178	0.013275	-0.013733	-0.004272	0.013428	0.028229	-0.009003	0.22034	0.004883	0.059509	-0.053406	0.027924	0.008545	-0.036926	0.089874	-0.01709	-0.032654	-0.044403	-0.098267	0.033569	0.18097	0.05661	-0.029602	0.056763	-0.036469	0.001526	-0.002289	-0.20447	-0.006866	0.26977	-0.002136	-0.000153	-0.024414
20.179	0.004883	-0.01236	0.069122	-0.001373	0.014038	0.006561	0.17487	0.009308	0.06134	-0.067444	0.02182	-0.010681	-0.096893	0.13473	-0.028381	-0.018921	-0.0383	-0.10803	0.38528	0.076599	0.074463	-0.025482	0.012817	-0.025635	0.016785	0.000763	-0.1326	-0.002899	0.21713	-0.019836	-0.001526	-0.044556
20.18	0.006104	-0.005035	0.15427	-0.001526	0.007477	0.00824	0.23209	0.010376	0.077209	-0.075531	0.03891	0.004425	-0.083923	0.1152	-0.011902	-0.016174	-0.039063	-0.099182	0.29938	-0.0383	0.061493	-0.006409	0.019989	-0.048065	0.001221	-0.003662	-0.025635	-0.002289	-0.034027	-0.00824	-0.000305	-0.032349
20.181	0.000763	-0.021973	0.13458	0.02182	-0.010834	0.019073	0.27176	0.010681	0.061951	-0.069427	0.052948	0.002899	-0.021667	0.02533	0.015106	-0.017395	-0.024872	-0.10071	0.006104	-0.078583	-0.05127	-0.023346	0.036926	-0.06546	0.005798	-0.005035	-0.059967	-0.010529	-0.27741	-0.043182	-0.00061	-0.027771
20.182	-0.00946	0.005341	0.12909	0.023956	-0.04776	0.007019	0.26428	0.010834	0.043793	-0.04715	-0.008392	-0.000763	-0.064087	0.012054	0.10391	-0.80063	-0.040894	-0.10483	-0.13245	0.038147	-0.10544	-0.000305	0.025177	-0.055084	0.010681	-0.000916	-0.03479	-0.002899	-0.066681	-0.050964	-0.000153	-0.030518
20.183	0.006714	0.050659	0.06012	0.010834	-0.039063	-0.029907	0.26993	0.00824	0.037079	-0.022278	-0.22369	-0.003662	0.006256	0.010376	0.058136	-1.0027	-0.004578	-0.005798	-0.06958	0.11719	-0.14465	0.010681	0.04425	-0.12924	0.001831	-0.000305	0.051422	-0.004272	0.048065	-0.062256	0.000916	-0.023651
20.184	0.012665	0.010223	0.13229	0.006256	0.011749	-0.035248	0.22583	0.018005	0.045471	0.010223	-0.22385	0.000916	-0.006714	-0.077667	0.46539	0.74051	-0.005035	-0.041809	-0.082855	0.099335	-0.046387	0.068207	0.06485	-0.16022	0.009613	0.00351	0.14313	-0.004272	0.032349	-0.012817	-0.000305	-0.023041
20.185	0.008392	-0.006104	0.068817	-0.013123	0.056915	0.000458	0.27451	0.003815	0.028687	-0.016174	-0.09552	-0.002289	0.009766	-0.046997	0.19501	0.096893	-0.04715	-0.045166	-0.12466	-0.028992	0.14801	0.05188	0.054321	-0.097046	-0.005035	0.00061	0.13672	-0.006256	0.10452	-0.013428	0.005035	-0.024109
20.186	0.003815	0.00824	0.04715	-0.003662	0.050354	0.016327	0.30731	-0.001068	0.028839	-0.042725	0.02655	0.00061	-0.003815	0.1297	0.092621	-0.023499	-0.036163	-0.068054	-0.12543	-0.092468	0.052948	-0.041504	0.004425	-0.0383	-0.011902	-0.021515	0.24414	-0.004425	0.052643	-0.057373	0	-0.010376
20.187	0.002747	0.02121	0.057526	0.020905	0.035553	0.042419	0.30609	0.003052	0.07431	-0.024872	0.14114	0.003662	-0.017395	0.21698	0.45868	0.65781	-0.034485	-0.044403	0.050964	-0.037231	-0.092926	-0.090485	0.024109	-0.032959	0.003357	-0.032501	0.041809	-0.001221	-0.1619	-0.064697	0.003204	-0.013428
20.188	0.006409	-0.04425	0.068665	0.005951	0.013885	0.031433	0.34653	0.010223	0.049591	0.10086	0.17838	0.000458	0.002899	0.22339	-0.24063	0.2182	-0.020599	-0.019531	0.11169	0.011749	-0.088196	-0.066528	0.034332	-0.077057	-0.010529	-0.035095	0.098572	-0.00473	-0.62943	-0.079346	-0.000458	-0.005798
20.189	0.00473	-0.077209	-0.020142	-0.010681	0.015869	0.003204	0.29755	0.024567	0.04364	-0.047302	0.095367	0.002441	0.044708	0.14771	-0.32379	0.04837	-0.027618	-0.080872	0.19486	0.03418	-0.022583	-0.024109	0.061493	-0.066528	0.002136	0.002136	0.06073	-0.006561	-0.62836	-0.10666	0.00061	-0.006866
20.19	0.016937	-0.058594	-0.049591	-0.000458	0.009613	-0.032806	0.11917	0.029297	0.079041	-0.056	0.026245	-0.002289	0.1178	0.11017	-0.37369	-0.025635	-0.001678	-0.027466	0.39597	-0.052643	-0.066376	0.078125	0.045776	-0.088654	0.002136	0.089569	-0.44373	-0.001526	0.70343	-0.14313	0.001526	0.002136
20.191	0.014954	-0.043488	-0.091705	0.00412	0.021515	-0.038605	0.13779	0.007324	0.020905	0.14206	0.021057	-0.011444	0.078583	0.10025	-0.3183	-0.091553	-0.00351	-0.092316	0.3743	-0.05661	-0.041656	-0.004883	0.050812	-0.10437	-0.002899	0.068207	-0.58105	-0.006561	1.4626	-0.14877	0.001221	0.007019
20.192	0.00473	-0.078888	-0.026093	0.00824	0.021362	-0.018311	0.18265	0.001373	-0.021973	0.13565	0.057068	0.001373	0.035706	-0.005493	-0.20386	0.25909	0.003052	-0.072479	0.027771	-0.052185	-0.025635	-0.030212	0.030823	-0.082245	0.00885	0.039673	-0.13001	-0.008087	0.074463	-0.05188	0.001831	-0.001221
20.193	0.00351	-0.057068	0.046234	0.006714	0.007019	-0.027313	0.15579	0.000916	0.029755	0.16205	0.10574	0.018311	-0.056	-0.21423	-0.10071	-0.11902	0.019379	-0.11124	-0.20798	-0.043945	-0.042114	-0.037231	0.028381	-0.086517	-0.001221	0.018768	0.28915	-0.011749	-1.1452	-0.05249	0.001526	0.000763
20.194	0.007172	-0.035858	0.030823	0.010529	-0.019226	0.019989	0.19577	0.007629	0.022583	0.13977	0.18463	0.009003	-0.13138	-0.2536	0.021667	-0.005951	0.02121	-0.088806	-0.3479	0.002441	-0.063324	-0.022125	0.048676	-0.095978	-0.000916	0.003662	0.24689	-0.009308	-0.77774	-0.11826	-0.002441	-0.00351
20.195	-0.006866	-0.057983	0.002899	0.005646	-0.015717	0.013428	0.23377	0.012512	0.011597	0.051727	0.24078	0.010376	-0.12817	-0.22125	0.10986	-0.18066	0.021667	-0.1033	-0.45059	0.008698	-0.093231	-0.003052	0.049591	-0.11353	0.00473	0.002899	0.215	-0.009613	0.04837	-0.13519	-0.002441	-0.010376
20.196	0.007629	-0.055237	-0.015411	0.00473	0.010986	-0.024567	0.215	0.016327	-0.000916	-0.005035	0.13321	0.016479	-0.068512	-0.11566	0.090332	0.10788	0.010376	-0.14557	-0.61905	-0.071106	-0.069885	-0.020599	0.011292	-0.10605	-0.006256	0.003204	-0.015259	-0.011749	0.62576	-0.023956	-0.001068	-0.007019
20.197	0.010223	-0.035095	0.020142	0.024719	0.029907	-0.011597	0.20279	0.008698	0.021973	-0.052338	-0.068359	0.010834	0.050049	0.015106	-0.000153	0.094757	0.013733	-0.079956	-0.46753	-0.072937	-0.023804	-0.054626	0.047607	-0.073547	0.013428	-0.006714	0.06485	-0.010681	0.45242	-0.015106	-0.000458	-0.008545
20.198	0.007782	-0.02533	0.046692	0.000305	0.020294	-0.016632	0.20615	-0.001678	-0.023804	-0.039978	-0.19806	0.007324	0.1004	-0.002594	0.069122	0.025635	0.007629	-0.050354	-0.14114	-0.084686	0.072021	-0.03479	0.003662	-0.046844	0.005646	0.001526	0.25864	-0.010223	0.093384	-0.13687	-0.002899	-0.011444
20.199	0.001831	-0.033875	0.023041	0.009918	0.007172	-0.003052	0.18921	0	-0.053101	-0.025787	-0.18845	-0.00351	0.079346	-0.042114	0.26382	-0.020752	0.013733	-0.11169	0.4007	-0.068817	0.039368	-0.044861	0.025177	-0.080872	0.023804	-0.001678	0.46951	-0.000458	0.040588	-0.047607	-0.000763	-0.010376
20.2	-0.000153	-0.033417	0.048981	0.011597	0.001831	-0.043335	0.15289	0.004425	-0.027466	-0.018921	-0.15381	-0.006409	0.032654	-0.048676	0.032959	-0.027771	0.033569	-0.11215	0.045624	-0.045471	-0.002136	-0.050507	0.024872	-0.12741	0.023193	-0.009918	0.37399	-0.009155	-0.36011	0.15137	0	-0.006104
20.201	0.00885	-0.021515	-0.053406	0.004883	0.018311	-0.031586	0.1265	0.011292	-0.052185	-0.002289	-0.12451	-0.002594	0.026855	-0.013733	-0.016174	-0.020142	0.048218	-0.16251	0.29068	-0.089569	-0.01709	-0.065002	0.028381	-0.13412	0.005188	-0.015106	0.097961	-0.009613	0.43533	0.11887	-0.000916	-0.00824
20.202	0.008545	-0.000305	-0.14832	-0.001221	0.028076	-0.010834	0.13138	0.010071	-0.042725	-0.007172	-0.075226	0.003967	-0.010071	-0.027161	-0.01709	-0.019836	0.072784	-0.13138	0.35019	-0.046692	-0.10819	-0.051727	0.046234	-0.17792	0.004425	-0.006409	-0.54367	-0.007324	0.62378	0.064697	-0.002136	-0.001373
20.203	0.009918	0.00473	-0.26504	0.00061	0.015259	0.017242	0.19821	0.002289	-0.056915	-0.027771	-0.13565	0.001831	0.021057	-0.096283	-0.1001	-0.005798	0.032959	-0.068359	0.006104	0.070038	-0.24567	-0.12665	0.022125	-0.12192	0.00885	-0.007935	-0.59052	-0.011902	-0.077209	-0.029449	-0.003204	0.002136
